<svg version="1.1" id="Layer_1" xmlns="http://www.w3.org/2000/svg" x="0" y="0" viewBox="0 0 256 256" style="enable-background:new 0 0 256 256" xml:space="preserve"><style>.st0{fill:#382b73}.st2{fill:#1caee4}.st3{fill:#009add}.st4{fill:#fede3a}.st5{fill:#e7ad27}.st7{fill:#f6ca14}.st10{fill:#fff}.st11{fill:#27c1e6}.st12{fill:#d0d2d3}.st14{fill:#1cade3}.st16{fill:#e43d91}</style><circle class="st0" cx="128" cy="128" r="120"/><circle cx="128" cy="128" r="102.5" style="fill:#473080"/><path class="st0" d="M207.077 176.557 200.52 170a9.34 9.34 0 0 0-9.029-2.42l-11.605-11.605.004-.005c8.04-10.77 12.8-24.13 12.8-38.6 0-35.69-28.93-64.62-64.62-64.62-35.69 0-64.62 28.93-64.62 64.62 0 25.257 14.505 47.116 35.634 57.741V204.433a5.464 5.464 0 0 0 5.464 5.465h26.362l14.336 14.336c1.148 1.148 3.11.335 3.11-1.288v-13.048h3.097a5.464 5.464 0 0 0 5.464-5.465v-29.244a64.797 64.797 0 0 0 9.763-5.999l.001-.001 11.599 11.6c-.83 3.12-.03 6.58 2.42 9.03l8.993 8.993c.778.778 2.048.791 2.822.008a90.739 90.739 0 0 0 4.505-4.901 90.98 90.98 0 0 0 10.4-14.979 2.003 2.003 0 0 0-.343-2.383z"/><g><path transform="rotate(-45.001 176.765 159.074)" class="st2" d="M167.434 144.968h18.682v28.211h-18.682z"/><path transform="rotate(-45.001 171.985 163.854)" class="st3" d="M169.414 149.749h5.161v28.211h-5.161z"/><path class="st4" d="M207.077 169.557c.63.63.776 1.606.344 2.385a91.041 91.041 0 0 1-10.4 14.979 90.33 90.33 0 0 1-4.505 4.901c-.774.782-2.044.77-2.823-.008l-8.993-8.993c-2.45-2.45-3.25-5.91-2.42-9.03a9.316 9.316 0 0 1 2.42-4.18l6.11-6.11.52-.53a9.375 9.375 0 0 1 4.16-2.39c3.12-.83 6.58-.03 9.03 2.42l6.557 6.556z"/><path class="st5" d="m186.81 176.71 10.21 10.21a90.33 90.33 0 0 1-4.505 4.901c-.774.782-2.044.77-2.823-.008l-8.993-8.993c-2.45-2.45-3.25-5.91-2.42-9.03a9.316 9.316 0 0 1 2.42-4.18l6.11-6.11a9.327 9.327 0 0 0-2.62 8.1 9.28 9.28 0 0 0 2.621 5.11z"/><path class="st2" d="M128.07 45.75c-35.69 0-64.62 28.93-64.62 64.62 0 35.68 28.93 64.61 64.62 64.61 14.48 0 27.84-4.76 38.61-12.79 1.39-1.04 2.73-2.13 4.03-3.27 3.4-2.99 6.48-6.32 9.18-9.95 8.04-10.77 12.8-24.13 12.8-38.6 0-35.69-28.93-64.62-64.62-64.62zm0 112.59c-26.5 0-47.98-21.48-47.98-47.97 0-26.5 21.48-47.98 47.98-47.98s47.98 21.48 47.98 47.98c0 26.49-21.48 47.97-47.98 47.97z"/><path class="st3" d="M128.07 55.09c-30.53 0-55.28 24.75-55.28 55.28s24.75 55.28 55.28 55.28c12.57 0 24.15-4.19 33.43-11.25.01 0 .01-.01.02-.01.88-.67 1.73-1.37 2.57-2.09 2.96-2.54 5.65-5.39 8.01-8.5 7.06-9.28 11.25-20.86 11.25-33.43 0-30.53-24.75-55.28-55.28-55.28zm0 103.25c-26.5 0-47.98-21.48-47.98-47.97 0-26.5 21.48-47.98 47.98-47.98s47.98 21.48 47.98 47.98c0 26.49-21.48 47.97-47.98 47.97z"/><path d="M176.05 110.37c0 11.36-3.95 21.78-10.53 29.99l-.11.14c-.19.22-.37.45-.55.66-.04.05-.08.09-.12.14a47.633 47.633 0 0 1-9.42 8.55c-.47.32-.94.64-1.42.94-.78.51-1.57.98-2.38 1.43-.45.25-.9.5-1.35.73-.94.49-1.9.95-2.88 1.38-.01.01-.03.01-.04.02a47.72 47.72 0 0 1-12.85 3.58 48.89 48.89 0 0 1-12.8-.02c-4.46-.6-8.72-1.82-12.71-3.56-.01-.01-.03-.01-.04-.02-1.01-.44-2-.91-2.97-1.43-.48-.24-.95-.5-1.41-.76-.79-.44-1.56-.91-2.32-1.4-.49-.31-.98-.63-1.46-.96a49.08 49.08 0 0 1-8.26-7.3c-.39-.43-.77-.86-1.13-1.31a.7.7 0 0 1-.08-.1c-.2-.23-.4-.47-.58-.71-.03-.03-.05-.07-.08-.1-6.56-8.19-10.47-18.59-10.47-29.89 0-26.5 21.48-47.98 47.98-47.98s47.98 21.48 47.98 47.98z" style="fill:#136da0"/><path class="st5" d="M119.423 104.796h17.204V122h-17.204z"/><path class="st7" d="M113.947 94.408c.352 2.511-.974 4.772-2.961 5.05-1.987.279-3.883-1.531-4.235-4.042-.352-2.511.974-4.772 2.961-5.05 1.987-.278 3.883 1.531 4.235 4.042zM142.103 94.408c-.352 2.511.974 4.772 2.961 5.05 1.987.279 3.883-1.531 4.235-4.042.352-2.511-.974-4.772-2.961-5.05-1.987-.278-3.883 1.531-4.235 4.042z"/><path d="M145.959 91.65c0 11.806-8.029 21.377-17.934 21.377-9.905 0-17.934-9.571-17.934-21.377s8.029-18.889 17.934-18.889c9.905 0 17.934 7.083 17.934 18.889z" style="fill:#fddd3a"/><path class="st7" d="M128.025 111.173c-9.643 0-17.505-9.073-17.914-20.447-.011.305-.02.612-.02.924 0 11.806 8.029 21.377 17.934 21.377 9.905 0 17.934-9.571 17.934-21.377 0-.312-.009-.619-.02-.924-.409 11.374-8.271 20.447-17.914 20.447z"/><path class="st7" d="M145.911 93.138c-.599-10.151-7.352-16.479-15.924-17.314a17.1 17.1 0 0 0-.182 2.474c0 9.002 7.036 16.354 15.908 16.872.092-.668.158-1.345.198-2.032z"/><path d="M161.16 126.15a7.32 7.32 0 0 0-2.06-3.26c-.09-.08-.19-.17-.28-.24-.05-.05-.11-.1-.17-.14-.05-.04-.1-.08-.16-.12 0 0 0-.01-.01-.01-.02-.02-.04-.03-.07-.05a2.75 2.75 0 0 0-.28-.19c0-.01-.01-.01-.01-.01a.218.218 0 0 0-.08-.05.138.138 0 0 0-.04-.03c-.04-.03-.09-.05-.13-.08-.03-.02-.06-.03-.09-.05a.076.076 0 0 0-.04-.02c-.02-.02-.05-.03-.07-.04-.01-.01-.03-.02-.04-.03-.01 0-.01-.01-.02-.01s-.02-.01-.03-.01a.467.467 0 0 0-.1-.05c-.01-.01-.01-.01-.02-.01-.03-.02-.06-.03-.09-.05-.05-.02-.1-.05-.16-.07-.01-.01-.02-.02-.04-.02l-.01-.01c-.02 0-.03-.01-.05-.02-.06-.03-.13-.06-.21-.09-.02-.01-.05-.02-.08-.03-.12-.05-.25-.1-.38-.14l-.01-.01a.188.188 0 0 0-.08-.02c-.01 0-.02-.01-.04-.01 0 0-.01-.01-.02-.01-.03-.01-.07-.02-.11-.03-.03-.01-.06-.02-.1-.03h-.01v-.01c-.02 0-.04 0-.05-.01h-.01c-.03-.01-.05-.01-.08-.02-.02 0-.03-.01-.05-.01a.31.31 0 0 0-.08-.02c-.02-.01-.04-.01-.06-.02-.02 0-.05-.01-.08-.01-.02-.01-.04-.01-.06-.02-.02 0-.05-.01-.08-.01-.02-.01-.03-.01-.05-.01-.03-.01-.06-.01-.09-.02-.02 0-.03 0-.05-.01-.03 0-.06-.01-.1-.01-.01 0-.02-.01-.04-.01-.04-.01-.09-.01-.13-.02h-.01l-.92-.12-10.14-1.34-1.53-.2h-.02s.01 0 0-.01l-5.81-.76-8.56-1.14h-.1l-8.55 1.14-5.81.76c-.01.01 0 .01 0 .01h-.02l-1.53.2L101 121c-.05.01-.09.01-.14.02-.01 0-.03.01-.04.01-.03 0-.07.01-.1.01-.02.01-.03.01-.05.01-.03.01-.06.01-.09.02-.02 0-.03 0-.05.01-.02 0-.04 0-.06.01-.02 0-.03 0-.04.01-.01 0-.02 0-.04.01-.03 0-.06.01-.08.01-.02.01-.04.01-.06.02a.31.31 0 0 0-.08.02c-.01 0-.01 0-.02.01h-.03c-.03.01-.05.01-.08.02-.02 0-.03.01-.05.01l-.09.03h-.01c-.01 0-.02.01-.02.01h-.02l-.09.03c-.01.01-.03.01-.04.01s-.01.01-.02.01c-.02.01-.04.01-.05.02-.01 0-.02 0-.03.01h-.02c-.02.01-.04.01-.05.02l-.09.03a.3.3 0 0 0-.1.04l-.03.01c-.03.01-.07.02-.1.04-.14.05-.28.11-.41.17-.05.02-.09.05-.13.07l-.06.03c-.03.01-.05.02-.07.03a.3.3 0 0 0-.08.04c-.01.01-.02.02-.03.02l-.01.01h-.01c-.01 0-.03.01-.04.02 0 .01-.01.01-.01.01-.03.01-.06.03-.09.05-.04.02-.07.04-.1.06h-.01c-.02.01-.04.03-.06.04-.02.01-.05.03-.07.04-.02.01-.03.02-.04.03-.03.01-.06.03-.08.05 0 0-.01 0-.01.01-.1.06-.19.12-.28.19-.04.02-.07.05-.1.07-.02.02-.04.03-.06.05-.03.02-.05.04-.08.06-.06.04-.12.09-.17.14-.05.03-.09.07-.13.11-.05.04-.1.08-.15.13a7.32 7.32 0 0 0-2.06 3.26l-4.33 14.11c.03.03.05.07.08.1.18.24.38.48.58.71a.7.7 0 0 0 .08.1c.36.45.74.88 1.13 1.31a49.08 49.08 0 0 0 8.26 7.3c.48.33.97.65 1.46.96.76.49 1.53.96 2.32 1.4.46.26.93.52 1.41.76.97.52 1.96.99 2.97 1.43.01.01.03.01.04.02 3.99 1.74 8.25 2.96 12.71 3.56a48.89 48.89 0 0 0 12.8.02c4.51-.6 8.83-1.82 12.85-3.58.01-.01.03-.01.04-.02.98-.43 1.94-.89 2.88-1.38.45-.23.9-.48 1.35-.73.81-.45 1.6-.92 2.38-1.43.48-.3.95-.62 1.42-.94a47.633 47.633 0 0 0 9.42-8.55c.04-.05.08-.09.12-.14.18-.21.36-.44.55-.66l.11-.14-4.36-14.21z" style="fill:#e6e7e8"/><path class="st10" d="m161.16 126.15 4.36 14.21-.11.14c-.19.22-.37.45-.55.66l-3.7-12.05a7.36 7.36 0 0 0-2.71-3.79c-.13-.09-.26-.18-.4-.27-.13-.09-.27-.17-.42-.24-.63-.35-1.32-.61-2.05-.75-.12-.03-.24-.05-.36-.06-.05-.01-.11-.02-.17-.03l-12.79-1.69-2.13-.28-.53-.07-1.02-.14-1.95-.25-5.2-.69-1.08-.14h-.01l-2.32-.31-2.32.31-1.08.14h-.01l-5.19.69-1.95.25-1.02.14-.53.07-2.13.28-12.79 1.69c-.06.01-.12.02-.17.03-.12.01-.24.03-.36.06-.04.01-.08.01-.11.02-.18.04-.36.08-.53.14-.04.01-.08.02-.12.04-.17.05-.34.11-.51.18-.57.22-1.11.52-1.6.88a7.36 7.36 0 0 0-2.71 3.79l-3.67 11.96c-.2-.23-.4-.47-.58-.71-.03-.03-.05-.07-.08-.1l4.33-14.11a7.32 7.32 0 0 1 2.06-3.26c.05-.05.1-.09.15-.13.04-.04.08-.08.13-.11.05-.05.11-.1.17-.14.03-.02.05-.04.08-.06.02-.02.04-.03.06-.05.03-.02.06-.05.1-.07.09-.07.18-.13.28-.19 0-.01.01-.01.01-.01.02-.02.05-.04.08-.05.01-.01.02-.02.04-.03.02-.01.05-.03.07-.04.02-.01.04-.03.06-.04h.01c.03-.02.06-.04.1-.06.03-.02.06-.04.09-.05 0 0 .01 0 .01-.01.01-.01.03-.02.04-.02h.01l.01-.01c.01 0 .02-.01.03-.02a.3.3 0 0 1 .08-.04c.02-.01.04-.02.07-.03l.06-.03c.04-.02.08-.05.13-.07.13-.06.27-.12.41-.17.03-.02.07-.03.1-.04l.03-.01a.3.3 0 0 1 .1-.04l.09-.03c.01-.01.03-.01.05-.02h.02c.01-.01.02-.01.03-.01.01-.01.03-.01.05-.02.01 0 .01-.01.02-.01s.03 0 .04-.01l.09-.03h.02s.01-.01.02-.01h.01l.09-.03c.02 0 .03-.01.05-.01.03-.01.05-.01.08-.02h.03c.01-.01.01-.01.02-.01a.31.31 0 0 1 .08-.02c.02-.01.04-.01.06-.02.02 0 .05-.01.08-.01.02-.01.03-.01.04-.01.01-.01.02-.01.04-.01.02-.01.04-.01.06-.01.02-.01.03-.01.05-.01.03-.01.06-.01.09-.02.02 0 .03 0 .05-.01.03 0 .07-.01.1-.01.01 0 .03-.01.04-.01.05-.01.09-.01.14-.02l11.06-1.46 1.53-.2h.02s-.01 0 0-.01l5.81-.76 8.55-1.14h.1l8.56 1.14 5.81.76c.01.01 0 .01 0 .01h.02l1.53.2 10.14 1.34.92.12h.01c.04.01.09.01.13.02.02 0 .03.01.04.01.04 0 .07.01.1.01.02.01.03.01.05.01.03.01.06.01.09.02.02 0 .03 0 .05.01.03 0 .06.01.08.01.02.01.04.01.06.02.03 0 .06.01.08.01.02.01.04.01.06.02.02 0 .05.01.08.02.02 0 .03.01.05.01.03.01.05.01.08.02h.01c.01.01.03.01.05.01v.01h.01c.04.01.07.02.1.03.04.01.08.02.11.03.01 0 .02.01.02.01.02 0 .03.01.04.01.03 0 .06.01.08.02l.01.01c.13.04.26.09.38.14a2.202 2.202 0 0 1 .29.12c.02.01.03.02.05.02l.01.01c.02 0 .03.01.04.02.06.02.11.05.16.07.03.02.06.03.09.05.01 0 .01 0 .02.01.03.01.07.03.1.05.01 0 .02.01.03.01.01 0 .01.01.02.01.01.01.03.02.04.03.02.01.05.02.07.04.01 0 .03.01.04.02.03.02.06.03.09.05.04.03.09.05.13.08.02.01.03.02.04.03.03.01.06.03.08.05 0 0 .01 0 .01.01.1.06.19.12.28.19.03.02.05.03.07.05.01 0 .01.01.01.01.06.04.11.08.16.12.06.04.12.09.17.14.09.07.19.16.28.24a7.32 7.32 0 0 1 2.06 3.26z"/><path class="st2" d="m159.1 122.89-.65 2.43-3.19 11.85c-.9 3.35-1.36 6.81-1.36 10.28v3.34c-.78.51-1.57.98-2.38 1.43-.45.25-.9.5-1.35.73-.94.49-1.9.95-2.88 1.38-.01.01-.03.01-.04.02a47.72 47.72 0 0 1-12.85 3.58 48.89 48.89 0 0 1-12.8-.02c-4.46-.6-8.72-1.82-12.71-3.56-.01-.01-.03-.01-.04-.02-1.01-.44-2-.91-2.97-1.43-.48-.24-.95-.5-1.41-.76-.79-.44-1.56-.91-2.32-1.4v-3.29c0-3.47-.46-6.93-1.36-10.28l-3.19-11.85-.65-2.43c.05-.05.1-.09.15-.13.04-.04.08-.08.13-.11.05-.05.11-.1.17-.14.03-.02.05-.04.08-.06.02-.02.04-.03.06-.05.03-.02.06-.05.1-.07.09-.07.18-.13.28-.19 0-.01.01-.01.01-.01.02-.02.05-.04.08-.05.01-.01.02-.02.04-.03.02-.01.05-.03.07-.04.02-.01.04-.03.06-.04h.01c.03-.02.06-.04.1-.06.03-.02.06-.04.09-.05 0 0 .01 0 .01-.01.01-.01.03-.02.04-.02h.01l.01-.01c.01 0 .02-.01.03-.02a.3.3 0 0 1 .08-.04c.02-.01.04-.02.07-.03l.06-.03c.04-.02.08-.05.13-.07.13-.06.27-.12.41-.17.03-.02.07-.03.1-.04l.03-.01a.3.3 0 0 1 .1-.04l.09-.03c.01-.01.03-.01.05-.02h.02c.01-.01.02-.01.03-.01.01-.01.03-.01.05-.02.01 0 .01-.01.02-.01s.03 0 .04-.01c.02-.01.04-.01.07-.01.01-.01.02-.02.04-.02 0 0 .01-.01.02-.01h.01a.32.32 0 0 1 .14-.03c.03-.02.07-.03.11-.03.01-.01.01-.01.02-.01a.31.31 0 0 1 .08-.02c.02-.01.04-.01.06-.02.02 0 .05-.01.08-.01.02-.01.03-.01.04-.01.01-.01.02-.01.04-.01.02-.01.04-.01.06-.01.02-.01.03-.01.05-.01.03-.01.06-.01.09-.02.02 0 .03 0 .05-.01.03 0 .07-.01.1-.01.01 0 .03-.01.04-.01.05-.01.09-.01.14-.02l11.06-1.46 1.53-.2h.02l2.14-.28 1.72 2.73.98 1.55v.01l1.92 3.04 6.6 10.47c.25.39.65.58 1.05.58.41 0 .81-.19 1.06-.58l6.6-10.47 1.92-3.04v-.01l.98-1.55 1.72-2.73 2.14.28h.02l1.53.2v.01l10.14 1.33.92.12h.01c.04.01.09.01.13.02.02 0 .03.01.04.01.04 0 .07.01.1.01.02.01.03.01.05.01.03.01.06.01.09.02.02 0 .03 0 .05.01.03 0 .06.01.08.01.02.01.04.01.06.02.03 0 .06.01.08.01.02.01.04.01.06.02.02 0 .05.01.08.02.02 0 .03.01.05.01.03 0 .06.01.08.03.02 0 .05.01.06.01h.01c.04.01.07.02.1.03.04.01.08.02.11.03.01 0 .02.01.02.01.02 0 .03.01.04.01l.09.03c.13.04.26.09.38.14a2.202 2.202 0 0 1 .29.12c.02.01.03.02.05.02l.01.01c.02 0 .03.01.04.02.06.02.11.05.16.07.03.02.06.03.09.05.01 0 .01 0 .02.01.03.01.07.03.1.05.01 0 .02.01.03.01.01 0 .01.01.02.01.01.01.03.02.04.03.02.01.05.02.07.04.01 0 .03.01.04.02.03.02.06.03.09.05.04.03.09.05.13.08.02.01.03.02.04.03.03.01.06.03.08.05 0 0 .01 0 .01.01.1.06.19.12.28.19.03.02.05.03.07.05.01 0 .01.01.01.01.06.04.11.08.16.12.06.04.12.09.17.14.09.07.19.16.28.24z"/><path class="st3" d="m140.305 119.055-11.226 17.807a1.236 1.236 0 0 1-1.054.581c-.405 0-.809-.194-1.054-.581l-11.226-17.807-3.683.486 14.261 22.621a1.997 1.997 0 0 0 1.702.939c.654 0 1.307-.313 1.702-.939l14.261-22.621-3.683-.486z"/><path class="st11" d="m157.749 121.901-.013-.007-.107-.059-.018-.01a5.827 5.827 0 0 0-.11-.058l-.009-.005a13.15 13.15 0 0 0-.119-.06l-.006-.003-.124-.059-.002-.001-.126-.058-.002-.001a7.732 7.732 0 0 0-.524-.21l-.011-.004-.117-.04a.393.393 0 0 0-.032-.01l-.1-.032-.039-.012-.093-.028a2.96 2.96 0 0 0-.133-.038l-.049-.013-.087-.023-.048-.012a2.611 2.611 0 0 0-.085-.02l-.055-.013-.079-.017-.058-.012-.082-.016-.054-.01-.09-.016-.049-.009-.095-.015-.044-.007a3.03 3.03 0 0 0-.133-.018l-.007-.001-.918-.121-13.828-1.826-1.726 2.738 16.473 2.175a7.356 7.356 0 0 1 3.398 1.349l.653-2.431a7.417 7.417 0 0 0-1.233-.917l-.008-.005a2.016 2.016 0 0 0-.111-.065z"/><path class="st3" d="m159.1 122.89-.65 2.43-3.19 11.85c-.9 3.35-1.36 6.81-1.36 10.28v3.34c-.78.51-1.57.98-2.38 1.43-.45.25-.9.5-1.35.73v-5.5c0-3.47.45-6.93 1.36-10.28l3.69-13.17.79-2.8v-.01h.01c.02.01.03.01.05.02h.01c.04.01.07.02.1.03.04.01.08.02.11.03.01 0 .02.01.02.01.02 0 .03.01.04.01l.09.03c.13.04.26.09.38.14a2.202 2.202 0 0 1 .29.12c.02.01.03.02.05.02l.01.01c.02 0 .03.01.04.02.06.02.11.05.16.07.03.02.06.03.09.05.01 0 .01 0 .02.01.03.01.07.03.1.05.01 0 .02.01.03.01.01 0 .01.01.02.01.01.01.03.02.04.03.02.01.05.02.07.04.01 0 .03.01.04.02.03.02.06.03.09.05.04.03.09.05.13.08.02.01.03.02.04.03.03.01.06.03.08.05 0 0 .01 0 .01.01.1.06.19.12.28.19.03.02.05.03.07.05.01 0 .01.01.01.01.06.04.11.08.16.12.06.04.12.09.17.14.09.07.19.16.28.24z"/><path class="st11" d="m117.471 121.793-1.726-2.738-14.746 1.947-.14.019-.038.006-.101.016-.045.008a3.091 3.091 0 0 0-.094.017l-.05.01-.086.017-.055.012-.082.018-.052.012-.088.021-.045.011-.09.023-.045.012-.093.026-.04.011a2.745 2.745 0 0 0-.097.029l-.035.011-.104.034-.027.009a6.29 6.29 0 0 0-.126.044l-.002.001a7.441 7.441 0 0 0-.906.393l-.004.002a6.47 6.47 0 0 0-.116.061l-.013.007-.112.062-.007.004-.117.067-.003.002c-.443.262-.857.57-1.235.918l.653 2.431a7.356 7.356 0 0 1 3.398-1.349l16.469-2.174z"/><path class="st3" d="M105.88 147.45v5.45c-.48-.24-.95-.5-1.41-.76-.79-.44-1.56-.91-2.32-1.4v-3.29c0-3.47-.46-6.93-1.36-10.28l-3.19-11.85-.65-2.43c.05-.05.1-.09.15-.13.04-.04.08-.08.13-.11.05-.05.11-.1.17-.14.03-.02.05-.04.08-.06.02-.02.04-.03.06-.05.03-.02.06-.05.1-.07.09-.07.18-.13.28-.19 0-.01.01-.01.01-.01.02-.02.05-.04.08-.05.01-.01.02-.02.04-.03.02-.01.05-.03.07-.04.02-.01.04-.03.06-.04h.01c.03-.02.06-.04.1-.06.03-.02.06-.04.09-.05 0 0 .01 0 .01-.01.01-.01.03-.02.04-.02h.01l.01-.01c.01 0 .02-.01.03-.02a.3.3 0 0 1 .08-.04c.02-.01.04-.02.07-.03l.06-.03c.04-.02.08-.05.13-.07.13-.06.27-.12.41-.17.03-.02.07-.03.1-.04l.03-.01a.3.3 0 0 1 .1-.04l.09-.03c.01-.01.03-.01.05-.02h.02c.01-.01.02-.01.03-.01.01-.01.03-.01.05-.02.01 0 .01-.01.02-.01s.03 0 .04-.01c.02-.01.04-.01.07-.01.01-.01.02-.02.04-.02 0 0 .01-.01.02-.01h.01l.09-.03c.02 0 .03-.01.05-.01v.01l.79 2.8 3.69 13.17c.9 3.35 1.36 6.81 1.36 10.28z"/><path class="st12" d="m128.025 117.452-5.83 8.164a1.895 1.895 0 0 1-2.966.149l-5.642-6.425 14.438-1.888zM128.025 117.452l5.83 8.164a1.895 1.895 0 0 0 2.966.149l5.641-6.425-14.437-1.888zM108.85 154.33h38.44c-.01.01-.03.01-.04.02a47.72 47.72 0 0 1-12.85 3.58 48.89 48.89 0 0 1-12.8-.02c-4.46-.6-8.72-1.82-12.71-3.56-.01-.01-.03-.01-.04-.02z"/><path class="st3" d="M108.85 154.33h38.44c-.01.01-.03.01-.04.02a47.72 47.72 0 0 1-12.85 3.58 48.89 48.89 0 0 1-12.8-.02c-4.46-.6-8.72-1.82-12.71-3.56-.01-.01-.03-.01-.04-.02z"/><path class="st7" d="M110.091 91.65c0 .971.059 1.926.165 2.863 1.674.448 3.432.692 5.247.692 11.23 0 20.333-9.103 20.333-20.333 0-.158-.008-.314-.012-.471-2.358-1.075-5.004-1.64-7.799-1.64-9.905 0-17.934 7.083-17.934 18.889z"/><path d="M110.111 90.704a16.834 16.834 0 0 0 7.038 1.535c9.338 0 16.907-7.57 16.907-16.907 0-.556-.029-1.104-.081-1.646a19.176 19.176 0 0 0-5.95-.925c-9.637 0-17.495 6.706-17.914 17.943z" style="fill:#0099dc"/><path class="st14" d="M128.025 75.727c2.086 0 4.088.318 5.95.925.005.055.007.111.012.166.043-.49.069-.985.069-1.486 0-.556-.029-1.104-.081-1.646a19.176 19.176 0 0 0-5.95-.925c-9.637 0-17.495 6.707-17.914 17.943.092.042.188.079.281.12 1.532-9.512 8.841-15.097 17.633-15.097z"/><path class="st14" d="M129.987 72.858a17.09 17.09 0 0 0-.182 2.474c0 9.081 7.16 16.487 16.142 16.888.004-.19.012-.378.012-.569 0-11.016-6.991-17.918-15.972-18.793z"/><path d="M129.987 75.824c8.308.81 14.908 6.779 15.852 16.388l.108.008c.004-.19.012-.378.012-.569 0-11.016-6.991-17.917-15.972-18.792a17.09 17.09 0 0 0-.182 2.474c0 .501.025.995.068 1.485.029-.335.066-.666.114-.994z" style="fill:#23c1e6"/><g><path class="st10" d="M134.574 123.983c.511.51 1.315.577 1.905.16l5.364-3.8c.718-.515.83-1.539.24-2.196l-3.561-3.968a1.484 1.484 0 0 0-1.671-.38l-8.825 3.653 6.548 6.531z"/></g><g><path class="st10" d="M121.476 123.983a1.484 1.484 0 0 1-1.905.16l-5.364-3.8a1.483 1.483 0 0 1-.24-2.196l3.562-3.968c.42-.468 1.09-.62 1.671-.38l8.825 3.653-6.549 6.531z"/></g><path class="st7" d="m129.889 102.255-1.395 1.395a.663.663 0 0 1-.938 0l-1.395-1.395a.663.663 0 0 1 .469-1.132h2.79c.591 0 .887.714.469 1.132z"/><g><path class="st16" d="M151.452 151.784h-46.904a5.465 5.465 0 0 0-5.465 5.465v40.185a5.465 5.465 0 0 0 5.465 5.465h26.362l14.336 14.336c1.147 1.148 3.109.335 3.109-1.288v-13.048h3.097a5.464 5.464 0 0 0 5.464-5.465v-40.185a5.463 5.463 0 0 0-5.464-5.465z"/><path d="M151.452 147.23h-46.904a5.465 5.465 0 0 0-5.465 5.465v40.185a5.465 5.465 0 0 0 5.465 5.465h27.272l13.425 13.425c1.147 1.147 3.109.335 3.109-1.288v-12.137h3.097a5.464 5.464 0 0 0 5.464-5.465v-40.185a5.462 5.462 0 0 0-5.463-5.465z" style="fill:#ef5a9d"/><path class="st16" d="M130.347 186.317a3.755 3.755 0 0 1 1.042 2.638 3.66 3.66 0 0 1-1.078 2.636c-.49.493-1.364 1.086-2.733 1.086-1.408 0-2.284-.612-2.77-1.125a3.698 3.698 0 0 1-1.021-2.597c0-.99.342-1.89.989-2.602.489-.538 1.372-1.179 2.802-1.179 1.101-.001 2.059.395 2.769 1.143zm4.69-27.291c-1.719-1.734-4.03-2.614-6.871-2.614-2.743 0-5.062.839-6.891 2.494-1.887 1.706-2.861 3.972-2.894 6.736a2.188 2.188 0 0 0 2.184 2.211h2.331a2.185 2.185 0 0 0 2.185-2.148c.02-1.221.458-1.768.784-2.072.546-.509 1.298-.756 2.301-.756 1.237 0 1.754.401 2.035.704.482.518.717 1.289.717 2.356 0 .579-.067 1.083-.198 1.497a4.16 4.16 0 0 1-.571 1.152c-.164.234-.674.857-2.241 2.399-1.518 1.493-2.503 2.812-3.012 4.034-.502 1.208-.763 2.686-.795 4.52a2.183 2.183 0 0 0 2.185 2.222h2.332a2.185 2.185 0 0 0 2.185-2.185c0-1.699.469-2.919 1.507-3.793 1.997-1.835 3.34-3.444 4.105-4.919a10.687 10.687 0 0 0 1.205-4.969c-.001-2.828-.87-5.14-2.583-6.869z"/><path class="st4" d="M130.347 184.132a3.755 3.755 0 0 1 1.042 2.638 3.66 3.66 0 0 1-1.078 2.636c-.49.493-1.364 1.086-2.733 1.086-1.408 0-2.284-.612-2.77-1.125a3.698 3.698 0 0 1-1.021-2.597c0-.99.342-1.89.989-2.602.489-.538 1.372-1.179 2.802-1.179 1.101 0 2.059.395 2.769 1.143zm4.69-27.29c-1.719-1.734-4.03-2.614-6.871-2.614-2.743 0-5.062.839-6.891 2.494-1.887 1.706-2.861 3.972-2.894 6.736a2.188 2.188 0 0 0 2.184 2.211h2.331a2.185 2.185 0 0 0 2.185-2.148c.02-1.221.458-1.768.784-2.072.546-.509 1.298-.756 2.301-.756 1.237 0 1.754.401 2.035.704.482.518.717 1.289.717 2.356 0 .579-.067 1.083-.198 1.497a4.16 4.16 0 0 1-.571 1.152c-.164.234-.674.857-2.241 2.399-1.518 1.493-2.503 2.812-3.012 4.034-.502 1.208-.763 2.686-.795 4.52a2.183 2.183 0 0 0 2.185 2.222h2.332a2.185 2.185 0 0 0 2.185-2.185c0-1.699.469-2.919 1.507-3.793 1.997-1.835 3.34-3.444 4.105-4.919a10.684 10.684 0 0 0 1.205-4.969c-.001-2.829-.87-5.14-2.583-6.869z"/><path class="st5" d="M125.081 163.521c.02-1.221.458-1.768.784-2.072.546-.509 1.298-.756 2.301-.756 1.237 0 1.754.401 2.035.704.318.342.518.806.625 1.382.054-.306.092-.634.092-1.005 0-1.067-.235-1.839-.717-2.356-.282-.302-.798-.704-2.035-.704-1.003 0-1.755.247-2.301.756-.326.305-.764.851-.784 2.072a2.185 2.185 0 0 1-2.185 2.148h-2.331a2.189 2.189 0 0 1-1.554-.649 2.171 2.171 0 0 1-.527-.908c-.057.43-.098.868-.103 1.326a2.188 2.188 0 0 0 2.184 2.211h2.331a2.186 2.186 0 0 0 2.185-2.149zM136.414 166.701c-.765 1.475-2.108 3.083-4.105 4.919-1.038.874-1.507 2.094-1.507 3.793a2.185 2.185 0 0 1-2.185 2.185h-2.332a2.186 2.186 0 0 1-1.559-.653 2.19 2.19 0 0 1-.548-.988c-.042.443-.07.906-.079 1.399a2.183 2.183 0 0 0 2.185 2.222h2.332a2.185 2.185 0 0 0 2.185-2.185c0-1.699.469-2.919 1.507-3.793 1.997-1.835 3.34-3.444 4.105-4.919a10.684 10.684 0 0 0 1.205-4.969c0-.382-.019-.753-.05-1.116a10.636 10.636 0 0 1-1.154 4.105zM130.311 187.426c-.49.493-1.364 1.086-2.733 1.086-1.408 0-2.284-.612-2.77-1.125a3.64 3.64 0 0 1-.882-1.613 3.99 3.99 0 0 0-.139.996c0 .996.353 1.894 1.021 2.597.486.513 1.362 1.125 2.77 1.125 1.369 0 2.243-.593 2.733-1.086a3.66 3.66 0 0 0 1.078-2.636 3.94 3.94 0 0 0-.141-.996 3.616 3.616 0 0 1-.937 1.652z"/></g></g></svg>